<svg width="107" height="107" viewBox="0 0 107 107" fill="none" xmlns="http://www.w3.org/2000/svg">
    <path d="M79.8289 40.4964L94.727 25.9341C96.5619 27.8511 98.2184 29.9232 99.6965 32.1504C104.566 39.4872 107 48.1556 107 58.1557C107 68.0553 104.566 76.6735 99.6965 84.0103C94.8276 91.2968 88.0228 96.9501 79.2821 100.97C70.5414 104.99 60.3635 107 48.7484 107H0L94.727 25.9341L32.5576 91.0204H48.7484C56.1398 91.0204 62.5047 89.5882 67.8429 86.7238C73.2399 83.8595 77.3755 79.965 80.25 75.0403C83.1831 70.0654 84.6497 64.4372 84.6497 58.1557C84.6497 51.7738 83.1831 46.1204 80.25 41.1958C80.1125 40.9602 79.9722 40.7271 79.8289 40.4964Z" fill="url(#paint0_linear_326_321)"/>
    <path d="M38.4238 16.277H21.5905V78.2446L0 98.7269V0H38.4238C50.4998 0 61.0816 2.02829 70.1692 6.08487C76.4979 8.87465 81.8506 12.4883 86.227 16.9258L70.7377 31.6201C67.7727 26.9855 63.6188 23.3163 58.2761 20.6125C52.726 17.7222 46.1086 16.277 38.4238 16.277Z" fill="url(#paint1_linear_326_321)"/>
    <path d="M86.227 16.9258L70.7377 31.6201L21.5905 78.2446L0 98.7269V100.704L92.2171 23.1225L89.2896 19.9279L86.227 16.9258Z" fill="url(#paint2_linear_326_321)"/>
    <defs>
        <linearGradient id="paint0_linear_326_321" x1="-30.4457" y1="13.5982" x2="63.1206" y2="149.359" gradientUnits="userSpaceOnUse">
            <stop offset="0.403846" stop-color="#4F46E5"/>
            <stop offset="0.649038" stop-color="#10B981"/>
        </linearGradient>
        <linearGradient id="paint1_linear_326_321" x1="-26.2394" y1="-15.3242" x2="98.1358" y2="109.877" gradientUnits="userSpaceOnUse">
            <stop offset="0.403846" stop-color="#4F46E5"/>
            <stop offset="0.649038" stop-color="#10B981"/>
        </linearGradient>
        <linearGradient id="paint2_linear_326_321" x1="-26.2394" y1="-15.3242" x2="98.1358" y2="109.877" gradientUnits="userSpaceOnUse">
            <stop offset="0.403846" stop-color="#4F46E5"/>
            <stop offset="0.649038" stop-color="#10B981"/>
        </linearGradient>
    </defs>
</svg>