<svg width="33" height="52" viewBox="0 0 33 52" fill="none" xmlns="http://www.w3.org/2000/svg">
<path d="M15.0196 51.818V-0.000136256H18.3392V51.818H15.0196ZM23.8247 17.1039C23.6627 15.4711 22.9678 14.2026 21.7398 13.2985C20.5118 12.3944 18.8453 11.9423 16.7401 11.9423C15.3097 11.9423 14.102 12.1448 13.1169 12.5496C12.1318 12.9409 11.3762 13.4874 10.8499 14.1891C10.3371 14.8908 10.0807 15.687 10.0807 16.5776C10.0537 17.3198 10.2089 17.9676 10.5463 18.5208C10.8971 19.0741 11.3762 19.5531 11.9834 19.958C12.5906 20.3493 13.2923 20.6934 14.0885 20.9903C14.8847 21.2737 15.7348 21.5166 16.6389 21.719L20.3634 22.6096C22.1716 23.0144 23.8314 23.5542 25.3428 24.2289C26.8541 24.9036 28.1631 25.7335 29.2696 26.7186C30.3762 27.7037 31.233 28.8642 31.8403 30.2002C32.461 31.5361 32.7781 33.0677 32.7916 34.795C32.7781 37.3319 32.1304 39.5315 30.8485 41.3937C29.58 43.2424 27.7448 44.6796 25.3428 45.7051C22.9543 46.7172 20.0732 47.2232 16.6997 47.2232C13.3531 47.2232 10.4383 46.7104 7.95534 45.6849C5.48588 44.6593 3.5562 43.1412 2.16628 41.1305C0.789862 39.1064 0.0679155 36.6032 0.000443853 33.621H8.48162C8.57608 35.0109 8.97417 36.1714 9.67587 37.1025C10.3911 38.0201 11.3424 38.7151 12.5299 39.1874C13.7309 39.6462 15.0871 39.8756 16.5985 39.8756C18.0828 39.8756 19.3715 39.6597 20.4646 39.2278C21.5711 38.796 22.428 38.1955 23.0352 37.4264C23.6425 36.6572 23.9461 35.7733 23.9461 34.7747C23.9461 33.8436 23.6695 33.0609 23.1162 32.4267C22.5764 31.7925 21.7803 31.2527 20.7277 30.8074C19.6887 30.3621 18.4134 29.9573 16.9021 29.5929L12.3882 28.4594C8.8932 27.6092 6.13361 26.2801 4.10946 24.4718C2.08532 22.6636 1.07999 20.2278 1.09348 17.1646C1.07999 14.6547 1.74796 12.4619 3.09739 10.5862C4.46032 8.71045 6.32928 7.24632 8.70428 6.19376C11.0793 5.1412 13.7781 4.61492 16.8009 4.61492C19.8776 4.61492 22.5629 5.1412 24.857 6.19376C27.1645 7.24632 28.9593 8.71045 30.2412 10.5862C31.5232 12.4619 32.1844 14.6345 32.2249 17.1039H23.8247Z" fill="white"/>
</svg>
